<?xml version="1.0" encoding="UTF-8"?>
<svg id="Capa_1" data-name="Capa 1" xmlns="http://www.w3.org/2000/svg" viewBox="0 0 27 27">
  <defs>
    <style>
      .cls-1 {
        stroke-width: 0px;
      }
    </style>
  </defs>
  <path class="cls-1" d="m25.46,8.45c-.65-1.55-1.59-2.93-2.78-4.12-1.19-1.19-2.58-2.13-4.12-2.78-1.6-.68-3.3-1.02-5.05-1.02s-3.45.34-5.05,1.02c-1.55.65-2.93,1.59-4.12,2.78-1.19,1.19-2.13,2.58-2.78,4.12-.68,1.6-1.02,3.3-1.02,5.05s.34,3.45,1.02,5.05c.65,1.55,1.59,2.93,2.78,4.12,1.19,1.19,2.58,2.13,4.12,2.78,1.6.68,3.3,1.02,5.05,1.02s3.45-.34,5.05-1.02c1.55-.65,2.93-1.59,4.12-2.78,1.19-1.19,2.13-2.58,2.78-4.12.68-1.6,1.02-3.3,1.02-5.05s-.34-3.45-1.02-5.05Zm-3.01-3.29c2.12,2.27,3.28,5.22,3.28,8.34s-1.27,6.34-3.58,8.65h0c-2.31,2.31-5.38,3.58-8.65,3.58s-6.07-1.16-8.34-3.28l-.61-.61c-2.12-2.27-3.28-5.22-3.28-8.34h0c0-3.27,1.27-6.34,3.58-8.65,2.31-2.31,5.38-3.58,8.65-3.58s6.07,1.16,8.34,3.28"/>
  <path class="cls-1" d="m8.85,18.76c.13.17.27.33.42.48,1.07,1.09,2.58,1.69,4.23,1.69s3.16-.6,4.23-1.69c1.14-1.17,1.75-2.82,1.75-4.77,0-1.73-.47-3.53-1.31-5.04l-.47-.75c-.54-.78-1.14-1.4-1.82-1.85-.76-.51-1.57-.77-2.39-.77s-1.63.26-2.39.77c-.7.47-1.33,1.13-1.89,1.95-1.09,1.63-1.7,3.69-1.7,5.69,0,1.35.29,2.55.85,3.56l.49.73Zm9.87-4.29c0,1.75-.53,3.21-1.53,4.23-.93.94-2.24,1.46-3.69,1.46s-2.76-.52-3.69-1.46c-1-1.02-1.53-2.48-1.53-4.23,0-1.84.57-3.76,1.58-5.26,1.03-1.54,2.32-2.38,3.64-2.38s2.62.85,3.64,2.38c1,1.5,1.58,3.42,1.58,5.26Z"/>
  <path class="cls-1" d="m10.4,10.04c.07.05.14.06.21.06.12,0,.25-.06.32-.17.77-1.15,1.7-1.81,2.57-1.81.21,0,.38-.17.38-.38s-.17-.38-.38-.38c-1.13,0-2.3.78-3.21,2.15-.12.18-.07.42.1.54h0Z"/>
</svg>