<?xml version="1.0" encoding="UTF-8"?>
<svg id="Capa_1" data-name="Capa 1" xmlns="http://www.w3.org/2000/svg" viewBox="0 0 27 27">
  <defs>
    <style>
      .cls-1 {
        stroke-width: 0px;
      }
    </style>
  </defs>
  <g>
    <path class="cls-1" d="m25.49,8.43c-.65-1.55-1.59-2.94-2.79-4.13-1.2-1.2-2.59-2.13-4.13-2.79-1.6-.68-3.31-1.02-5.07-1.02s-3.46.34-5.07,1.02c-1.55.65-2.94,1.59-4.13,2.79-1.2,1.2-2.13,2.59-2.79,4.13-.68,1.6-1.02,3.31-1.02,5.07s.34,3.46,1.02,5.07c.65,1.55,1.59,2.94,2.79,4.13,1.2,1.2,2.59,2.13,4.13,2.79,1.6.68,3.31,1.02,5.07,1.02s3.46-.34,5.07-1.02c1.55-.65,2.94-1.59,4.13-2.79,1.2-1.2,2.13-2.59,2.79-4.13.68-1.6,1.02-3.31,1.02-5.07s-.34-3.46-1.02-5.07Zm-2.93-3.2c2.07,2.26,3.2,5.18,3.2,8.26,0,3.28-1.27,6.36-3.59,8.67-2.32,2.32-5.4,3.59-8.67,3.59-3.09,0-6-1.13-8.26-3.2l-.62-.6c-2.19-2.29-3.39-5.28-3.39-8.46h0c0-3.28,1.27-6.35,3.59-8.67,2.32-2.32,5.4-3.59,8.67-3.59s6.17,1.2,8.46,3.39"/>
    <path class="cls-1" d="m8.75,11.73c.14-.54.41-1.08.75-1.48.31-.37.65-.58.91-.58.04,0,.07,0,.11.01.25.06.47.39.58.87.13.53.12,1.2-.03,1.78-.23.87-.74,1.42-1.34,1.42-.09,0-.18-.01-.26-.03-.71-.19-.99-.97-.73-1.99h0Zm.99,2.79c.96,0,1.76-.77,2.08-2,.18-.71.19-1.5.03-2.16-.19-.78-.59-1.29-1.14-1.43-.1-.03-.2-.04-.3-.04-.5,0-1.03.3-1.5.85-.41.49-.74,1.14-.91,1.78-.18.71-.16,1.37.07,1.89.23.53.66.89,1.2,1.03.15.05.3.06.45.06h0Z"/>
    <path class="cls-1" d="m9.64,13.45c.17,0,.33-.12.37-.29l.72-2.78c.05-.21-.07-.41-.28-.47-.21-.05-.41.07-.47.28l-.72,2.78c-.05.21.07.41.28.47.03,0,.06.01.1.01Z"/>
    <path class="cls-1" d="m17.41,18.6c-.39.65-.91,1.02-1.41,1.02-.18,0-.36-.05-.52-.15-.62-.38-.67-1.21-.12-2.11.51-.84,1.41-1.52,2.01-1.52.11,0,.2.02.27.07.46.27.45,1.58-.24,2.69h0Zm.64-3.35c-.19-.12-.42-.18-.67-.18-.88,0-2.01.79-2.67,1.88-.38.63-.55,1.26-.47,1.84.07.57.37,1.04.85,1.33.28.17.6.26.92.26.77,0,1.53-.51,2.06-1.38.78-1.29.97-3.15-.02-3.75h0Z"/>
    <path class="cls-1" d="m17.52,16.11c-.18-.11-.42-.05-.53.13l-1.49,2.45c-.11.18-.05.42.13.53.06.04.13.06.2.06.13,0,.25-.07.33-.18l1.49-2.45c.11-.18.05-.42-.13-.53h0Z"/>
    <path class="cls-1" d="m13.48,5.98s.04,0,.06,0c.26,0,.58.24.85.64.31.45.54,1.03.62,1.6.15,1.05-.22,1.79-.95,1.9-.05,0-.1.01-.15.01-.65,0-1.15-.6-1.28-1.57-.18-1.3.32-2.5.85-2.57h0Zm.43,4.91c.09,0,.17,0,.25-.02.55-.08,1.02-.39,1.31-.89.29-.5.39-1.14.29-1.87-.1-.69-.37-1.39-.74-1.94-.43-.62-.96-.96-1.48-.96-.06,0-.11,0-.16.01-1.15.16-1.72,1.94-1.51,3.44.19,1.35.99,2.23,2.04,2.23h0Z"/>
    <path class="cls-1" d="m13.59,9.49c.03.19.19.33.38.33.02,0,.04,0,.05,0,.21-.03.35-.22.33-.43l-.4-2.84c-.03-.21-.22-.35-.43-.33-.21.03-.35.22-.33.43l.4,2.84Z"/>
  </g>
  <g>
    <path class="cls-1" d="m17.46,9.68s.04,0,.06,0c.26,0,.58.24.85.64.31.45.54,1.03.62,1.6.15,1.05-.22,1.79-.95,1.9-.05,0-.1.01-.15.01-.65,0-1.15-.6-1.28-1.57-.18-1.3.32-2.5.85-2.57h0Zm.43,4.91c.09,0,.17,0,.25-.02.55-.08,1.02-.39,1.31-.89.29-.5.39-1.14.29-1.87-.1-.69-.37-1.39-.74-1.94-.43-.62-.96-.96-1.48-.96-.06,0-.11,0-.16.01-1.15.16-1.72,1.94-1.51,3.44.19,1.35.99,2.23,2.04,2.23h0Z"/>
    <path class="cls-1" d="m17.57,13.19c.03.19.19.33.38.33.02,0,.04,0,.05,0,.21-.03.35-.22.33-.43l-.4-2.84c-.03-.21-.22-.35-.43-.33-.21.03-.35.22-.33.43l.4,2.84Z"/>
  </g>
  <g>
    <path class="cls-1" d="m13.81,11.7s.04,0,.06,0c.26.04.53.33.74.76.24.49.37,1.1.36,1.68-.02,1.06-.51,1.74-1.23,1.72-.05,0-.1,0-.15-.01-.65-.1-1.04-.78-1.02-1.75.03-1.31.71-2.42,1.25-2.4h0Zm-.35,4.91c.09.01.17.02.25.02.56,0,1.07-.23,1.44-.67.37-.44.57-1.07.58-1.8.01-.7-.14-1.44-.43-2.03-.33-.68-.8-1.1-1.31-1.19-.05,0-.11-.01-.16-.01-1.16-.02-2,1.64-2.03,3.15-.03,1.37.62,2.36,1.66,2.53h0Z"/>
    <path class="cls-1" d="m13.36,15.18c0,.19.14.35.32.38.02,0,.04,0,.05,0,.21,0,.39-.17.39-.38l.05-2.87c0-.21-.17-.39-.38-.39-.21,0-.39.17-.39.38l-.05,2.87Z"/>
  </g>
  <g>
    <path class="cls-1" d="m9.98,15.88s.03-.02.05-.02c.25-.08.62.05,1.01.33.44.32.84.81,1.09,1.33.47.95.35,1.77-.3,2.1-.04.02-.09.04-.14.06-.62.21-1.28-.21-1.71-1.09-.58-1.18-.49-2.47,0-2.71h0Zm1.95,4.52c.08-.03.16-.06.24-.1.5-.25.84-.69.97-1.26.12-.56.01-1.21-.31-1.87-.31-.63-.79-1.21-1.32-1.6-.61-.45-1.22-.61-1.71-.45-.05.02-.1.04-.15.06-1.04.51-1.02,2.38-.35,3.74.61,1.23,1.64,1.81,2.64,1.48h0Z"/>
    <path class="cls-1" d="m11.19,19.18c.09.17.29.25.47.19.02,0,.04-.01.05-.02.19-.09.27-.33.17-.51l-1.28-2.57c-.09-.19-.33-.27-.51-.17-.19.09-.27.33-.17.51l1.28,2.57Z"/>
  </g>
</svg>