<?xml version="1.0" encoding="UTF-8"?>
<svg id="Capa_1" data-name="Capa 1" xmlns="http://www.w3.org/2000/svg" viewBox="0 0 27 27">
  <defs>
    <style>
      .cls-1 {
        fill: #fff;
      }

      .cls-2 {
        fill: #2a0;
      }
    </style>
  </defs>
  <circle class="cls-2" cx="13.5" cy="13.5" r="13"/>
  <g>
    <path class="cls-1" d="m14.76,15.84s2.46-6.01,4.65-8.6c1.08.44,8.12,13.06-4.86,15.52,0,0,4.69-3.9,5.18-10.59-.4.56-1.31,5.54-4.9,9.2.45-2.34.51-3.75-.08-5.53h0Z"/>
    <path class="cls-1" d="m14.15,22.1s4.03-12.18-9.44-7.29c.4.71,3.86,6.57,8.76,8.12.12-1.15-1.43-5.38-5.46-7.32.36-.2,4.18.55,6.13,6.48h0Z"/>
    <path class="cls-1" d="m14.55,15.02s1.93-4.34,2.46-4.9c-.44-1.51-4.2-5.06-7.94-6.05,0,0-.59,3.66,1.31,9.1.86-.14,2.47.38,3.51,1.31-.1-.8-.69-4.24-2.13-6.79.4.12,2.34,3.9,2.79,7.33h0Z"/>
  </g>
</svg>